<?xml version="1.0" encoding="UTF-8"?>
<svg width="60px" height="60px" viewBox="0 0 60 60" version="1.1" xmlns="http://www.w3.org/2000/svg" xmlns:xlink="http://www.w3.org/1999/xlink">
    <!-- Generator: Sketch 61.2 (89653) - https://sketch.com -->
    <title>icon-alerts</title>
    <desc>Created with Sketch.</desc>
    <g id="Page-1" stroke="none" stroke-width="1" fill="none" fill-rule="evenodd">
        <g id="icon-alerts">
            <circle id="Oval" fill="#4E5559" cx="30" cy="30" r="30"></circle>
            <g transform="translate(15.000000, 17.000000)" fill="#FFFFFF" fill-rule="nonzero">
                <path d="M18.7501832,17.708274 C18.7501832,18.0016966 18.6439926,18.2558696 18.432139,18.4699631 C18.2200509,18.6846496 17.9687937,18.7917852 17.6786018,18.7917852 L12.3215155,18.7917852 C12.0311477,18.7917852 11.780125,18.6846496 11.5680369,18.4699631 C11.3560074,18.2559289 11.2499927,18.0017559 11.2499927,17.708274 L11.2499927,15 L0,15 L0,23.1252372 C0,23.8699102 0.262163647,24.5073884 0.786784122,25.0377308 C1.31128732,25.5681325 1.94198117,25.8333333 2.67863111,25.8333333 L27.3215448,25.8333333 C28.0580188,25.8333333 28.688654,25.5681325 29.2132159,25.0377308 C29.7379536,24.5073884 30,23.8699102 30,23.1252372 L30,15 L18.7501832,15 L18.7501832,17.708274 Z" id="Path"></path>
                <path d="M12.8570088,15.3124925 L17.1431084,15.3124925 L17.1431084,17.5 L12.8570088,17.5 L12.8570088,15.3124925 Z M29.2132143,5.17818846 C28.6887101,4.6426397 28.058015,4.37501496 27.3215396,4.37501496 L21.4285044,4.37501496 L21.4285044,1.64052586 C21.4285044,1.1847677 21.2723552,0.797486994 20.9597636,0.47844431 C20.6475238,0.1595812 20.2678519,0 19.8215689,0 L10.1786657,0 C9.732324,0 9.35288668,0.1595812 9.04029506,0.47844431 C8.72770344,0.79730742 8.57155422,1.18470784 8.57155422,1.64052586 L8.57155422,4.37501496 L2.67863635,4.37501496 C1.9420436,4.37501496 1.31134852,4.6426397 0.78678566,5.17818846 C0.262164159,5.71367736 0,6.35714994 0,7.10914492 L0,13.6717272 L30,13.6717272 L30,7.10914492 C30,6.35714994 29.7380118,5.71367736 29.2132143,5.17818846 Z M19.2858064,4.37501496 L10.7143695,4.37501496 L10.7143695,2.18738777 L19.2858064,2.18738777 L19.2858064,4.37501496 Z" id="Shape"></path>
            </g>
        </g>
    </g>
</svg>